<?xml version="1.0" encoding="UTF-8"?> <svg xmlns="http://www.w3.org/2000/svg" width="183" height="90" viewBox="0 0 183 90" fill="none"><g clip-path="url(#clip0_333_2779)"><path d="M136.973 38.3512C136.775 38.6414 136.6 38.8963 136.427 39.1527C135.689 40.2516 134.947 41.3473 134.216 42.4509C133.93 42.8812 133.732 43.3484 133.687 43.8715C133.632 44.5063 133.905 44.9775 134.517 45.112C134.888 45.193 134.964 45.3464 134.945 45.687C134.917 46.2062 134.938 46.2062 134.422 46.2062C132.621 46.2062 130.821 46.1991 129.021 46.2164C128.712 46.2195 128.667 46.122 128.649 45.8412C128.622 45.4149 128.707 45.16 129.157 44.9901C129.76 44.7628 130.181 44.2593 130.561 43.7583C132.347 41.4095 133.969 38.9443 135.68 36.5428C135.771 36.4161 135.767 36.3272 135.687 36.1982C134.005 33.4656 132.427 30.6684 130.661 27.9877C130.289 27.4229 129.914 26.8329 129.197 26.6245C129.082 26.5907 129.077 26.5041 129.079 26.4074C129.081 26.2501 129.095 26.0912 129.077 25.9362C129.044 25.6625 129.145 25.5846 129.424 25.5854C131.999 25.5964 134.575 25.5964 137.151 25.5869C137.419 25.5862 137.547 25.6459 137.507 25.9323C137.491 26.0479 137.491 26.1698 137.508 26.2854C137.544 26.5159 137.446 26.5993 137.224 26.6481C136.264 26.8557 135.995 27.3403 136.309 28.2748C136.515 28.8875 136.865 29.4303 137.191 29.9817C137.736 30.9028 138.289 31.82 138.875 32.7993C139.751 31.4267 140.74 30.2059 141.475 28.816C141.609 28.5603 141.679 28.2771 141.704 27.9877C141.769 27.2514 141.489 26.8565 140.777 26.6552C140.665 26.6229 140.469 26.6677 140.464 26.4908C140.454 26.2068 140.401 25.9142 140.5 25.6389C140.531 25.5523 140.668 25.594 140.757 25.594C142.636 25.5925 144.515 25.598 146.394 25.5862C146.668 25.5846 146.746 25.6805 146.716 25.9275C146.705 26.018 146.704 26.1124 146.716 26.2021C146.757 26.4852 146.67 26.6434 146.372 26.748C145.715 26.9792 145.268 27.4929 144.858 28.0246C143.226 30.1445 141.752 32.3777 140.199 34.5534C140.106 34.6832 140.072 34.7815 140.167 34.9365C142.008 37.9099 143.758 40.9399 145.657 43.8778C146.013 44.4277 146.401 44.9681 147.082 45.1726C147.285 45.2332 147.217 45.4038 147.22 45.5344C147.236 46.2077 147.233 46.2062 146.575 46.2062C144.104 46.2062 141.634 46.2022 139.163 46.2133C138.887 46.2148 138.739 46.1763 138.79 45.8609C138.813 45.7201 138.806 45.5714 138.79 45.429C138.771 45.2567 138.855 45.1938 139.006 45.1749C139.045 45.1702 139.084 45.16 139.122 45.1513C139.984 44.9602 140.268 44.4678 140.005 43.6206C139.786 42.9111 139.382 42.2952 139.006 41.6675C138.387 40.6339 137.754 39.6081 137.126 38.5793C137.087 38.5148 137.043 38.4542 136.973 38.3519V38.3512Z" fill="#0A1474"></path><path d="M119.426 25.5922C121.804 25.5922 124.183 25.5969 126.561 25.5859C126.863 25.5843 126.967 25.6496 126.962 25.9729C126.943 27.3361 126.947 28.6993 126.96 30.0624C126.962 30.333 126.895 30.4298 126.612 30.4164C126.127 30.3936 125.639 30.396 125.154 30.4164C124.925 30.4258 124.829 30.3409 124.762 30.1364C124.611 29.6762 124.43 29.2271 124.208 28.796C123.742 27.8914 123.018 27.3848 121.98 27.3793C120.824 27.373 119.667 27.3809 118.511 27.3675C118.273 27.3652 118.231 27.458 118.232 27.6672C118.238 29.8823 118.24 32.0974 118.23 34.3125C118.229 34.5626 118.311 34.6224 118.546 34.6153C119.111 34.5988 119.676 34.6129 120.241 34.6059C121.325 34.5933 121.783 34.259 122.147 33.249C122.244 32.9807 122.211 32.5882 122.44 32.4663C122.677 32.3397 123.029 32.4238 123.331 32.423C123.845 32.422 124.102 32.6842 124.102 33.2096C124.102 34.8741 124.095 36.5393 124.109 38.2038C124.111 38.4964 124.037 38.5987 123.737 38.5766C123.371 38.5499 123.001 38.5617 122.634 38.5719C122.444 38.5774 122.357 38.5113 122.31 38.3202C122.209 37.9002 122.071 37.4903 121.839 37.1198C121.57 36.6927 121.195 36.4284 120.679 36.4158C119.944 36.3985 119.208 36.4025 118.473 36.3875C118.274 36.3836 118.232 36.4717 118.232 36.6487C118.236 39.165 118.236 41.6821 118.235 44.1985C118.235 44.3251 118.233 44.4376 118.41 44.4353C119.671 44.4187 120.933 44.4856 122.193 44.3999C123.029 44.3424 123.581 43.8335 124.013 43.1696C124.446 42.5041 124.704 41.7624 124.915 41.0049C124.982 40.7626 125.092 40.6714 125.35 40.6832C125.849 40.7052 126.349 40.6942 126.848 40.6879C127.031 40.6855 127.098 40.739 127.087 40.9388C126.99 42.6135 126.897 44.2874 126.824 45.9628C126.811 46.2735 126.626 46.2051 126.455 46.2051C124.562 46.2059 122.671 46.2051 120.778 46.2051C117.966 46.2051 115.154 46.1988 112.341 46.2138C112.002 46.2153 111.915 46.1398 111.897 45.789C111.874 45.343 112.005 45.1424 112.442 45.0346C113.128 44.8647 113.434 44.3511 113.485 43.673C113.513 43.2939 113.544 42.914 113.544 42.5348C113.547 38.026 113.545 33.5164 113.538 29.0076C113.538 28.6804 113.511 28.3531 113.481 28.0267C113.409 27.2637 112.911 26.8893 112.231 26.6832C112.105 26.6446 111.911 26.6698 111.917 26.4582C111.925 26.1861 111.851 25.8997 111.959 25.6457C112.008 25.5308 112.202 25.593 112.329 25.593C114.695 25.5906 117.06 25.5914 119.426 25.5914V25.5922Z" fill="#0A1475"></path><path d="M169.43 43.4234C169.43 42.7681 169.444 42.1121 169.423 41.4576C169.413 41.1745 169.508 41.1068 169.777 41.1202C170.249 41.143 170.724 41.1462 171.195 41.1202C171.468 41.1052 171.553 41.2162 171.601 41.4584C171.691 41.9084 171.861 42.3339 172.054 42.7516C172.615 43.9653 173.589 44.5694 174.899 44.6686C175.465 44.711 176.027 44.6811 176.578 44.5215C177.726 44.1887 178.448 43.2834 178.54 42.0909C178.646 40.7261 178.161 39.6343 177.078 38.7974C176.39 38.2648 175.634 37.8471 174.863 37.4515C173.693 36.8513 172.556 36.2039 171.582 35.3033C169.271 33.1668 169.401 30.0708 170.506 28.2616C171.373 26.841 172.742 26.1291 174.297 25.7232C176.25 25.2135 178.227 25.2914 180.206 25.5266C180.989 25.6194 181.759 25.7791 182.529 25.9435C182.726 25.9852 182.787 26.0622 182.786 26.2542C182.781 27.5521 182.781 28.8492 182.788 30.1471C182.789 30.3422 182.713 30.3925 182.532 30.3894C182.033 30.3799 181.532 30.3689 181.034 30.3925C180.774 30.4051 180.66 30.3186 180.605 30.0716C180.49 29.5587 180.299 29.0718 180.034 28.6163C179.58 27.8353 178.922 27.3483 178.015 27.2012C177.383 27.099 176.757 27.0943 176.14 27.2555C174.208 27.7613 173.505 30.022 174.76 31.6699C175.205 32.2552 175.796 32.6674 176.409 33.0512C177.565 33.7749 178.832 34.3082 179.954 35.0909C181.09 35.8838 182.098 36.7947 182.596 38.128C183.395 40.2644 183.133 43.4446 180.701 45.1138C179.534 45.9138 178.225 46.311 176.829 46.4046C174.442 46.5651 172.084 46.2976 169.741 45.8516C169.513 45.8084 169.416 45.7187 169.423 45.4678C169.442 44.7866 169.43 44.1046 169.43 43.4234Z" fill="#0A1475"></path><path d="M100.58 25.5911C103.405 25.5911 106.23 25.5958 109.056 25.584C109.368 25.5824 109.482 25.6375 109.477 25.982C109.457 27.5151 109.463 29.049 109.474 30.5821C109.476 30.833 109.418 30.9243 109.151 30.9125C108.666 30.8904 108.179 30.8975 107.693 30.9101C107.477 30.9156 107.372 30.8621 107.31 30.6324C107.161 30.0779 107.007 29.5233 106.783 28.9908C106.335 27.9265 105.557 27.3562 104.379 27.372C103.984 27.3775 103.589 27.3853 103.196 27.3657C102.963 27.3539 102.907 27.4396 102.915 27.6559C102.93 28.0618 102.919 28.4685 102.919 28.8744C102.919 33.3832 102.918 37.892 102.92 42.4008C102.92 42.7933 102.918 43.1898 102.967 43.5776C103.095 44.5884 103.435 44.9376 104.423 45.15C104.54 45.1752 104.73 45.1374 104.734 45.3152C104.74 45.5991 104.795 45.8902 104.696 46.1671C104.684 46.2009 104.554 46.2032 104.479 46.2032C101.877 46.204 99.2749 46.2017 96.6734 46.2064C96.4613 46.2064 96.3438 46.16 96.3801 45.9248C96.3879 45.8737 96.3879 45.8194 96.3801 45.7675C96.3225 45.3805 96.4274 45.1799 96.8713 45.0878C97.8089 44.8936 98.148 44.4523 98.178 43.4926C98.2088 42.5101 98.2064 41.5269 98.2072 40.5444C98.2095 36.285 98.204 32.0247 98.2166 27.7653C98.2174 27.4325 98.1299 27.3381 97.805 27.3633C97.2696 27.405 96.7302 27.3389 96.1924 27.4192C95.4306 27.5332 94.8975 27.9478 94.5269 28.6014C94.1673 29.2346 93.9923 29.9355 93.8006 30.6277C93.7383 30.8519 93.6484 30.9164 93.4261 30.9093C92.9269 30.8936 92.4269 30.8936 91.9286 30.9093C91.7015 30.9164 91.6399 30.8401 91.6407 30.6198C91.6486 29.0474 91.6549 27.4742 91.6368 25.9018C91.6328 25.573 91.7984 25.5872 92.0248 25.5872C94.1665 25.5903 96.3083 25.5887 98.4508 25.5887C99.1606 25.5887 99.8703 25.5887 100.58 25.5887V25.5911Z" fill="#0A1475"></path><path d="M178.527 54.3231C178.113 54.9485 177.738 55.4857 177.395 56.0426C177.08 56.5547 177.126 56.7341 177.615 57.0896C177.729 57.173 177.701 57.2666 177.7 57.3649C177.699 57.501 177.594 57.49 177.504 57.49C176.807 57.4916 176.111 57.4916 175.415 57.4916C175.325 57.4916 175.218 57.5049 175.207 57.3728C175.2 57.2721 175.162 57.147 175.271 57.0833C176.166 56.5594 176.539 55.6045 177.138 54.8376C177.404 54.497 177.628 54.1249 177.888 53.7796C178.008 53.6199 178.016 53.4956 177.91 53.3226C177.305 52.3409 176.716 51.3506 176.112 50.3681C175.942 50.0912 175.773 49.8033 175.46 49.6507C175.315 49.5807 175.363 49.4478 175.37 49.3392C175.379 49.2023 175.502 49.2377 175.584 49.237C176.557 49.2346 177.529 49.2354 178.501 49.2377C178.601 49.2377 178.724 49.2126 178.721 49.3801C178.72 49.4981 178.722 49.587 178.574 49.6546C178.177 49.8356 178.105 50.0275 178.313 50.4279C178.601 50.9832 178.93 51.5189 179.279 52.1269C179.639 51.5692 179.986 51.0807 180.28 50.5624C180.542 50.0999 180.477 49.9158 180.022 49.6483C179.877 49.5626 179.907 49.458 179.912 49.3502C179.918 49.2149 180.034 49.2385 180.121 49.2377C180.817 49.2362 181.514 49.237 182.21 49.2393C182.295 49.2393 182.41 49.211 182.409 49.3557C182.409 49.4556 182.458 49.5823 182.346 49.6452C181.466 50.1439 181.102 51.0752 180.522 51.8217C180.253 52.1678 179.817 52.5194 179.839 52.9269C179.859 53.31 180.229 53.6765 180.452 54.0455C180.92 54.8195 181.387 55.5927 181.865 56.3604C182.029 56.6255 182.186 56.9103 182.491 57.0463C182.655 57.1187 182.633 57.2509 182.618 57.3775C182.6 57.5411 182.462 57.4861 182.371 57.4868C181.412 57.4908 180.453 57.49 179.493 57.4892C179.378 57.4892 179.247 57.5136 179.247 57.3264C179.247 57.2005 179.261 57.1234 179.404 57.0605C179.802 56.8867 179.875 56.7081 179.654 56.2873C179.316 55.6407 178.93 55.0193 178.527 54.3216V54.3231Z" fill="#B6050B"></path><path d="M147.066 49.2369C148.143 49.2369 149.22 49.2447 150.297 49.2306C150.556 49.2274 150.636 49.3006 150.627 49.5586C150.607 50.0557 150.614 50.5536 150.623 51.0516C150.627 51.2537 150.592 51.3371 150.351 51.3615C149.929 51.404 149.732 51.2734 149.615 50.8494C149.407 50.095 148.969 49.8598 148.188 49.9432C147.918 49.9723 147.999 50.1485 147.998 50.2838C147.994 51.6722 147.994 53.0605 147.996 54.4489C147.996 55.0774 148.005 55.7059 148.005 56.3352C148.005 56.7057 148.144 56.9723 148.531 57.0565C148.686 57.0903 148.738 57.1674 148.731 57.3279C148.721 57.5513 148.563 57.4891 148.448 57.4891C147.516 57.493 146.583 57.4915 145.651 57.4907C145.523 57.4907 145.379 57.5229 145.368 57.3168C145.361 57.1784 145.397 57.0872 145.542 57.062C146.059 56.9715 146.105 56.5767 146.107 56.1684C146.114 54.9633 146.112 53.7583 146.113 52.5532C146.113 51.7807 146.106 51.0075 146.117 50.2351C146.12 50.0132 146.052 49.9479 145.827 49.944C144.981 49.9291 144.708 50.1116 144.44 50.9163C144.293 51.3607 144.104 51.4543 143.627 51.3544C143.428 51.3127 143.47 51.175 143.469 51.0539C143.465 50.556 143.481 50.0581 143.462 49.5609C143.452 49.3006 143.534 49.229 143.794 49.2321C144.884 49.2471 145.974 49.2384 147.065 49.2384L147.066 49.2369Z" fill="#B7050B"></path><path d="M140.415 62.994C140.617 62.4906 140.824 61.9903 141.017 61.4838C141.094 61.2808 141.18 61.1597 141.435 61.1715C141.723 61.1849 141.646 61.3941 141.667 61.5341C141.743 62.0344 141.799 62.5378 141.877 63.1498C142.138 62.4867 142.43 61.9557 142.569 61.3721C142.649 61.0386 142.886 61.177 143.03 61.2022C143.247 61.2407 143.096 61.4216 143.055 61.5137C142.748 62.2067 142.415 62.8894 142.112 63.5848C142.006 63.8271 141.826 63.7649 141.652 63.7689C141.447 63.7736 141.485 63.6107 141.468 63.4888C141.402 63.0255 141.336 62.5622 141.2 62.0824C141.004 62.552 140.789 63.0137 140.62 63.4928C140.529 63.75 140.379 63.7893 140.146 63.7767C139.891 63.7626 139.949 63.558 139.929 63.4283C139.829 62.7683 139.747 62.1052 139.662 61.4429C139.646 61.3209 139.591 61.1644 139.817 61.1817C139.975 61.1935 140.167 61.1243 140.188 61.3965C140.228 61.9266 140.287 62.4552 140.338 62.9846C140.364 62.9878 140.39 62.9909 140.416 62.994H140.415Z" fill="#030303"></path><path d="M154.407 63.8031C154.142 63.7992 153.948 63.7834 153.756 63.7315C153.613 63.693 153.493 63.6655 153.564 63.4806C153.62 63.3335 153.663 63.1723 153.89 63.2611C154.165 63.3689 154.452 63.3791 154.741 63.3241C155.019 63.2706 155.223 63.1298 155.292 62.8379C155.363 62.539 155.234 62.3322 154.989 62.1788C154.812 62.0679 154.624 61.9711 154.455 61.8492C153.895 61.4449 153.935 60.6677 154.537 60.3216C154.985 60.0636 155.466 60.0927 155.95 60.2028C156.063 60.2288 156.195 60.2555 156.134 60.427C156.086 60.5623 156.046 60.7188 155.841 60.6378C155.602 60.5426 155.352 60.5348 155.104 60.571C154.892 60.6024 154.697 60.6842 154.63 60.9218C154.56 61.1719 154.666 61.3591 154.86 61.4992C155.008 61.6053 155.172 61.6903 155.33 61.7815C155.669 61.9774 155.905 62.2386 155.881 62.6586C155.856 63.0991 155.649 63.4248 155.255 63.6316C154.966 63.7827 154.658 63.8165 154.407 63.8031Z" fill="#030303"></path><path d="M99.5114 63.8044C99.1849 63.7981 98.9767 63.7942 98.7709 63.7336C98.6321 63.6927 98.5114 63.6652 98.5769 63.4795C98.6305 63.3301 98.6652 63.1727 98.8955 63.2624C99.1699 63.3686 99.4593 63.3788 99.7487 63.3246C100.029 63.2719 100.236 63.1232 100.305 62.8369C100.377 62.5419 100.242 62.3295 99.9971 62.1769C99.8307 62.0731 99.6525 61.9865 99.4924 61.8741C98.86 61.4281 98.9381 60.5833 99.6446 60.2655C100.081 60.0688 100.537 60.0908 100.993 60.2112C101.127 60.2466 101.194 60.2993 101.127 60.4566C101.071 60.588 101.029 60.7099 100.854 60.6383C100.641 60.551 100.419 60.5455 100.196 60.5604C99.9317 60.5785 99.6943 60.6682 99.6225 60.9506C99.5547 61.2173 99.714 61.3982 99.923 61.5366C100.043 61.6161 100.167 61.6892 100.295 61.7561C100.72 61.9803 100.953 62.3083 100.869 62.8062C100.79 63.2805 100.496 63.5645 100.052 63.7179C99.837 63.7918 99.617 63.8075 99.5098 63.8044H99.5114Z" fill="#030303"></path><path d="M133.404 63.3733C133.679 62.7078 133.986 62.0746 134.196 61.4099C134.305 61.0678 134.519 61.1858 134.676 61.2109C134.88 61.244 134.751 61.4225 134.71 61.5232C134.306 62.5159 133.848 63.4866 133.344 64.4321C133.165 64.7672 132.879 65.0047 132.454 64.9662C132.334 64.9552 132.168 65.0087 132.168 64.7971C132.168 64.6161 132.255 64.5611 132.442 64.5626C132.74 64.5642 133.115 64.1804 133.145 63.8814C133.148 63.8492 133.142 63.7871 133.132 63.7855C132.692 63.7108 132.866 63.3363 132.819 63.0972C132.713 62.5592 132.66 62.0101 132.594 61.465C132.58 61.3549 132.487 61.1803 132.722 61.1826C132.888 61.1842 133.098 61.1024 133.121 61.406C133.161 61.9275 133.225 62.4475 133.285 62.9674C133.299 63.0917 133.255 63.2325 133.404 63.3717L133.404 63.3733Z" fill="#030303"></path><path d="M158.639 61.5769C158.807 61.4495 158.923 61.3433 159.056 61.2654C159.333 61.101 159.634 61.0593 159.91 61.2458C160.171 61.422 160.179 61.7107 160.134 61.9907C160.049 62.5059 159.935 63.0172 159.869 63.534C159.836 63.7881 159.694 63.7802 159.516 63.7731C159.253 63.7629 159.362 63.5765 159.38 63.4585C159.446 63.0203 159.538 62.5854 159.602 62.1464C159.631 61.9466 159.694 61.702 159.439 61.5982C159.182 61.4928 158.981 61.6344 158.829 61.8334C158.47 62.3014 158.433 62.8717 158.335 63.4223C158.302 63.6087 158.299 63.818 157.994 63.781C157.808 63.759 157.779 63.6968 157.805 63.5356C157.924 62.8017 158.124 62.0796 158.145 61.3315C158.15 61.1734 158.258 61.1765 158.363 61.1813C158.473 61.1868 158.615 61.149 158.628 61.3299C158.634 61.4055 158.635 61.481 158.64 61.5769H158.639Z" fill="#040404"></path><path d="M110.416 61.5964C110.629 61.3974 110.804 61.2298 111.056 61.1661C111.578 61.0332 111.949 61.2825 111.901 61.8111C111.846 62.4074 111.711 62.9965 111.621 63.5904C111.584 63.8382 111.404 63.7697 111.26 63.7682C111.023 63.7658 111.122 63.5873 111.138 63.4811C111.211 63.0036 111.303 62.5285 111.375 62.051C111.4 61.8858 111.421 61.6915 111.225 61.605C111.025 61.5177 110.841 61.5759 110.688 61.7309C110.368 62.0557 110.27 62.4758 110.185 62.9006C110.145 63.1059 110.103 63.3119 110.086 63.5196C110.065 63.7878 109.89 63.7957 109.697 63.7713C109.435 63.7383 109.584 63.5629 109.599 63.4449C109.689 62.7456 109.888 62.062 109.918 61.3549C109.924 61.2094 109.985 61.17 110.108 61.1826C110.215 61.1936 110.36 61.1299 110.395 61.3014C110.413 61.3832 110.407 61.4697 110.414 61.5979L110.416 61.5964Z" fill="#030303"></path><path d="M144.197 61.6196C144.418 61.4049 144.598 61.2389 144.85 61.1689C145.36 61.0281 145.758 61.2869 145.711 61.8037C145.655 62.4125 145.52 63.015 145.418 63.6192C145.381 63.8386 145.202 63.7639 145.072 63.7702C144.874 63.7796 144.921 63.6388 144.94 63.5255C145.015 63.0882 145.104 62.6532 145.163 62.2135C145.193 61.9932 145.292 61.7093 144.996 61.596C144.701 61.4835 144.502 61.6794 144.344 61.9067C144.066 62.3079 144.016 62.7798 143.928 63.2408C143.904 63.369 143.879 63.4972 143.856 63.6254C143.815 63.8512 143.635 63.7607 143.509 63.7686C143.308 63.7804 143.362 63.6262 143.378 63.52C143.492 62.7987 143.689 62.0892 143.713 61.3545C143.719 61.172 143.828 61.1807 143.949 61.1815C144.067 61.1815 144.197 61.1681 144.198 61.3459C144.198 61.4222 144.198 61.4993 144.198 61.6204L144.197 61.6196Z" fill="#030303"></path><path d="M167.873 60.9327C167.662 61.0208 167.496 61.0845 167.335 61.1593C167.209 61.2175 167.116 61.2261 167.064 61.0657C167.026 60.9437 166.997 60.8478 167.153 60.7801C167.538 60.6149 167.914 60.4317 168.298 60.2665C168.516 60.1721 168.496 60.3011 168.468 60.456C168.316 61.304 168.187 62.1559 168.014 62.9991C167.959 63.2697 167.999 63.3303 168.272 63.3397C168.418 63.3452 168.709 63.1478 168.724 63.4876C168.738 63.8369 168.444 63.7472 168.238 63.7488C167.766 63.7535 167.294 63.7558 166.822 63.7464C166.728 63.7448 166.55 63.8219 166.568 63.6166C166.579 63.4868 166.574 63.3311 166.793 63.3201C167.019 63.3083 167.314 63.4475 167.453 63.2367C167.571 63.0573 167.547 62.7836 167.587 62.5523C167.679 62.03 167.772 61.5069 167.873 60.9327H167.873Z" fill="#040404"></path><path d="M106.496 63.0956C106.833 62.5402 107.184 62.014 107.356 61.4114C107.452 61.0771 107.696 61.1456 107.875 61.203C108.083 61.2698 107.919 61.4571 107.867 61.557C107.512 62.2389 107.13 62.9083 106.773 63.5903C106.659 63.809 106.483 63.7705 106.303 63.7673C106.086 63.7634 106.114 63.573 106.091 63.4503C105.966 62.7841 105.856 62.1147 105.74 61.446C105.721 61.3312 105.621 61.1668 105.862 61.1849C106.006 61.1959 106.213 61.0803 106.249 61.3658C106.322 61.9432 106.413 62.5182 106.497 63.0948L106.496 63.0956Z" fill="#030303"></path><path d="M150.795 63.8035C150.73 63.7933 150.562 63.7697 150.396 63.7414C150.239 63.7154 150.217 63.6218 150.264 63.485C150.305 63.3654 150.34 63.2671 150.506 63.3174C150.733 63.3859 150.968 63.4275 151.203 63.3686C151.386 63.3229 151.551 63.2411 151.571 63.0162C151.589 62.8061 151.449 62.7141 151.289 62.6394C151.206 62.6008 151.121 62.5654 151.036 62.5332C150.763 62.4309 150.607 62.2429 150.602 61.9464C150.597 61.6459 150.724 61.4131 150.991 61.2723C151.361 61.0772 151.748 61.1023 152.138 61.2085C152.259 61.2416 152.316 61.3116 152.255 61.4406C152.206 61.5468 152.175 61.6577 152.005 61.5995C151.82 61.5358 151.625 61.4933 151.427 61.5397C151.282 61.5735 151.145 61.6302 151.114 61.7961C151.082 61.9621 151.174 62.0675 151.315 62.1391C151.396 62.18 151.476 62.2272 151.56 62.261C151.873 62.3861 152.117 62.5694 152.091 62.9477C152.063 63.3387 151.856 63.5959 151.481 63.7288C151.289 63.7965 151.097 63.8004 150.797 63.8035H150.795Z" fill="#040404"></path><path d="M131.119 61.6332C130.999 61.5238 130.65 61.7158 130.753 61.3421C130.771 61.2768 130.79 61.1934 130.865 61.206C131.256 61.2697 131.245 61.0007 131.249 60.7522C131.254 60.4997 131.445 60.5005 131.608 60.4926C131.832 60.4824 131.778 60.6704 131.748 60.7742C131.651 61.1077 131.727 61.2611 132.101 61.1982C132.189 61.1832 132.333 61.1525 132.321 61.3272C132.312 61.4593 132.295 61.6229 132.109 61.5812C131.608 61.4703 131.569 61.7944 131.528 62.1476C131.496 62.419 131.43 62.6864 131.383 62.957C131.334 63.2441 131.416 63.4298 131.751 63.3826C131.901 63.3613 131.972 63.403 131.98 63.558C131.989 63.7161 131.891 63.7554 131.765 63.7806C131.108 63.9112 130.79 63.6044 130.894 62.9381C130.928 62.7187 130.961 62.4992 130.999 62.2805C131.037 62.0626 131.079 61.8455 131.118 61.6324L131.119 61.6332Z" fill="#040404"></path><path d="M161.763 63.8031C160.937 63.8047 160.601 63.4531 160.631 62.6846C160.67 61.6761 161.489 60.9682 162.401 61.1633C162.517 61.1884 162.728 61.1444 162.667 61.3937C162.622 61.5778 162.533 61.6203 162.332 61.5943C161.579 61.4991 161.066 62.038 161.144 62.8112C161.188 63.2501 161.47 63.4476 161.953 63.3791C162.116 63.3563 162.331 63.2006 162.36 63.5254C162.387 63.8251 162.131 63.7449 161.975 63.7858C161.889 63.8086 161.793 63.8008 161.763 63.8031Z" fill="#040404"></path><path d="M104.686 61.5465C104.9 61.3844 105.068 61.2019 105.321 61.2012C105.418 61.2012 105.59 61.1193 105.587 61.3191C105.586 61.4521 105.594 61.6487 105.395 61.6503C104.789 61.655 104.641 62.0845 104.534 62.5478C104.458 62.879 104.387 63.2133 104.351 63.5507C104.322 63.8205 104.146 63.7765 103.982 63.7702C103.744 63.7608 103.849 63.5861 103.865 63.4799C103.971 62.7689 104.175 62.0727 104.187 61.3482C104.191 61.1178 104.355 61.2027 104.467 61.1894C104.747 61.1563 104.636 61.3805 104.686 61.5473V61.5465Z" fill="#050505"></path><path d="M119.892 61.5631C120.104 61.3704 120.282 61.2091 120.531 61.2005C120.628 61.1973 120.802 61.1226 120.795 61.3153C120.789 61.4506 120.817 61.6559 120.573 61.6544C120.083 61.652 119.884 61.9745 119.786 62.3828C119.695 62.7627 119.617 63.1481 119.567 63.5359C119.534 63.79 119.377 63.7766 119.202 63.7703C118.93 63.7609 119.06 63.576 119.077 63.4596C119.182 62.7501 119.382 62.0547 119.397 61.3319C119.401 61.1313 119.543 61.1997 119.648 61.1848C119.941 61.1431 119.861 61.3665 119.891 61.5631H119.892Z" fill="#050505"></path><path d="M129.743 61.5631C129.938 61.3775 130.12 61.221 130.362 61.2013C130.46 61.1934 130.638 61.1195 130.64 61.302C130.642 61.4318 130.673 61.652 130.434 61.6536C129.826 61.656 129.692 62.1012 129.583 62.5574C129.508 62.8744 129.449 63.1977 129.417 63.521C129.39 63.7979 129.217 63.7892 129.029 63.7688C128.761 63.7397 128.912 63.5619 128.929 63.4447C129.031 62.7478 129.227 62.065 129.246 61.3571C129.251 61.1706 129.354 61.2013 129.47 61.1816C129.768 61.1329 129.722 61.3539 129.743 61.5639L129.743 61.5631Z" fill="#050505"></path><path d="M149.46 61.5745C149.687 61.3692 149.862 61.204 150.116 61.2009C150.213 61.1993 150.386 61.123 150.372 61.3275C150.363 61.4581 150.378 61.6516 150.173 61.6516C149.588 61.65 149.434 62.063 149.326 62.5122C149.245 62.8543 149.176 63.2028 149.137 63.552C149.106 63.8211 148.931 63.7747 148.767 63.7691C148.531 63.7613 148.632 63.5969 148.649 63.4852C148.751 62.7757 148.96 62.0811 148.967 61.3582C148.97 61.1694 149.079 61.2025 149.194 61.1844C149.489 61.1372 149.449 61.3496 149.459 61.5761L149.46 61.5745Z" fill="#040404"></path><path d="M157.384 61.1943C157.252 61.9707 157.13 62.7046 156.998 63.4369C156.971 63.5911 156.983 63.7861 156.719 63.7783C156.521 63.772 156.435 63.7389 156.481 63.51C156.593 62.9602 156.683 62.4056 156.774 61.8519C156.793 61.7441 156.887 61.5781 156.642 61.5852C156.491 61.5899 156.53 61.4759 156.535 61.3901C156.541 61.2745 156.576 61.1896 156.719 61.1935C156.928 61.199 157.137 61.1951 157.384 61.1951V61.1943Z" fill="#060606"></path><path d="M108.795 61.1927C109.14 61.107 109.151 61.2808 109.085 61.5931C108.952 62.2192 108.847 62.8524 108.758 63.4865C108.723 63.7319 108.612 63.7893 108.394 63.7712C108.079 63.7452 108.262 63.5352 108.278 63.4243C108.355 62.8808 108.458 62.3404 108.551 61.7984C108.563 61.7284 108.629 61.6183 108.522 61.6018C108.36 61.5766 108.242 61.5679 108.296 61.3516C108.357 61.1125 108.541 61.2163 108.679 61.1927C108.705 61.188 108.732 61.1927 108.795 61.1927Z" fill="#060606"></path><path d="M157.177 60.7115C156.988 60.6926 156.814 60.7587 156.829 60.5125C156.844 60.2623 156.901 60.0775 157.214 60.1153C157.355 60.1318 157.522 60.0917 157.482 60.3261C157.446 60.5322 157.435 60.7642 157.178 60.7115H157.177Z" fill="#1D1D1D"></path><path d="M108.867 60.6962C108.673 60.7206 108.573 60.6875 108.592 60.4767C108.618 60.2069 108.734 60.0905 109.013 60.1157C109.165 60.129 109.258 60.1448 109.241 60.332C109.218 60.5845 109.16 60.7764 108.867 60.697V60.6962Z" fill="#171717"></path><path d="M168.214 45.5669C168.257 45.2955 168.151 45.1854 167.878 45.1154C167.237 44.951 166.812 44.5113 166.565 43.9111C166.407 43.5249 166.27 43.1276 166.151 42.7273C164.478 37.0873 162.809 31.4466 161.148 25.8035C161.075 25.5581 160.982 25.4763 160.724 25.4802C159.621 25.4959 158.516 25.5006 157.413 25.4778C157.097 25.4715 156.96 25.5651 156.85 25.8601C154.964 30.9078 153.069 35.9522 151.165 40.9928C150.782 42.0067 150.477 43.0568 149.897 43.9866C149.602 44.4594 149.256 44.9227 148.696 45.0666C148.245 45.1822 148.148 45.4009 148.171 45.8225C148.188 46.123 148.249 46.2174 148.566 46.2143C150.457 46.1985 152.35 46.1954 154.242 46.2166C154.603 46.2206 154.712 46.1159 154.657 45.784C154.645 45.7077 154.645 45.6251 154.657 45.5488C154.703 45.2798 154.576 45.1854 154.322 45.1563C153.914 45.1091 153.565 44.929 153.337 44.5766C153.058 44.1455 153.059 43.661 153.106 43.1717C153.213 42.0626 153.668 41.0534 154.005 40.0103C154.056 39.8514 154.149 39.82 154.297 39.82C156.294 39.8231 158.292 39.8231 160.289 39.8192C160.456 39.8192 160.541 39.8562 160.59 40.0379C160.85 41.0101 161.16 41.9713 161.321 42.9664C161.403 43.4785 161.504 44.0141 161.222 44.505C160.955 44.9699 160.486 45.1067 159.996 45.1877C159.858 45.2106 159.84 45.2979 159.844 45.4143C159.85 45.5716 159.861 45.7305 159.842 45.8855C159.81 46.1474 159.912 46.2151 160.169 46.2127C161.456 46.2009 162.744 46.2072 164.032 46.2072V46.2056C165.306 46.2056 166.581 46.1993 167.856 46.2111C168.11 46.2135 168.261 46.1789 168.213 45.8808C168.196 45.7785 168.197 45.6692 168.213 45.5669H168.214ZM154.653 38.047C155.654 35.2364 156.646 32.4511 157.672 29.5713C158.494 32.4582 159.287 35.2412 160.086 38.047H154.653Z" fill="#0A1475"></path><path d="M117.516 57.0419C117.158 56.9153 116.949 56.625 116.784 56.3073C116.608 55.9714 116.448 55.6268 116.293 55.2807C116.007 54.6467 115.646 54.0796 114.915 53.7351C115.086 53.647 115.189 53.5943 115.29 53.5423C116.367 52.9925 116.817 52.139 116.626 51.0032C116.468 50.0585 115.797 49.4583 114.624 49.3136C113.173 49.135 111.711 49.2727 110.255 49.2381C110.15 49.2357 110.035 49.227 110.035 49.3867C110.035 49.5063 110.027 49.6282 110.179 49.6707C110.607 49.7879 110.683 50.1135 110.679 50.4958C110.674 50.9804 110.687 51.4649 110.686 51.9503C110.682 53.4173 110.675 54.8851 110.67 56.3521C110.669 56.6825 110.567 56.9475 110.212 57.0412C110.047 57.0852 110.027 57.1977 110.038 57.3408C110.052 57.5249 110.189 57.4903 110.3 57.4903C111.18 57.4927 112.06 57.4942 112.94 57.4879C113.051 57.4879 113.215 57.5611 113.232 57.3369C113.246 57.1607 113.177 57.0742 113.013 57.0254C112.742 56.9444 112.619 56.7517 112.596 56.4717C112.535 55.726 112.578 54.9787 112.565 54.2322C112.563 54.137 112.571 54.0584 112.69 54.0222C113.001 53.9262 113.516 54.0749 113.716 54.3643C113.872 54.5885 113.995 54.8371 114.113 55.0849C114.454 55.8062 114.763 56.5432 115.171 57.2315C115.282 57.4179 115.41 57.5029 115.639 57.4958C116.23 57.4785 116.821 57.4927 117.412 57.4872C117.515 57.4864 117.664 57.5462 117.677 57.3511C117.687 57.2126 117.68 57.0986 117.516 57.0404L117.516 57.0419ZM114.642 52.493C114.427 53.0287 113.975 53.2293 113.432 53.2898C112.563 53.3866 112.563 53.3913 112.563 52.5394C112.563 52.2256 112.563 51.9109 112.563 51.5963H112.565C112.565 51.1377 112.572 50.6799 112.562 50.2213C112.557 50.0262 112.608 49.9169 112.824 49.9444C112.85 49.9476 112.876 49.9444 112.903 49.9444C114.494 49.9075 115.243 50.9985 114.643 52.4922L114.642 52.493Z" fill="#B6050B"></path><path d="M133.956 52.0552C133.84 51.3347 133.604 50.6542 133.08 50.1201C132.107 49.1306 130.883 49.0291 129.609 49.2242C128.243 49.4327 127.388 50.2586 126.963 51.5525C126.762 52.1692 126.699 52.804 126.699 53.449C126.712 53.7236 126.715 53.9989 126.739 54.2726C126.902 56.1919 127.877 57.3034 129.632 57.5417C130.006 57.5929 130.394 57.5889 130.771 57.5575C132.384 57.4253 133.43 56.5365 133.845 54.9751C134.102 54.0099 134.113 53.0337 133.956 52.0552ZM131.684 55.9953C131.321 56.7323 130.666 57.021 129.928 56.7827C129.466 56.6332 129.205 56.28 129.021 55.8608C128.785 55.3267 128.707 54.7564 128.666 54.1806C128.596 53.1981 128.598 52.2188 128.853 51.2576C128.906 51.057 128.983 50.8595 129.077 50.6747C129.342 50.1532 129.762 49.8661 130.364 49.8661C130.973 49.8661 131.374 50.1854 131.631 50.7038C132.069 51.5879 132.088 52.5452 132.103 53.4333C132.092 54.3544 132.071 55.2071 131.684 55.9937V55.9953Z" fill="#B7050B"></path><path d="M98.3058 49.3074C97.5338 49.1823 96.7578 49.2704 96.1057 49.2366C95.3408 49.2366 94.6965 49.2327 94.053 49.2405C93.9529 49.2413 93.7975 49.165 93.7676 49.3499C93.7431 49.4978 93.7526 49.6315 93.9403 49.6865C94.3054 49.7927 94.4016 50.0735 94.4008 50.4189C94.3984 52.372 94.4 54.3251 94.4 56.2783C94.4 56.6307 94.3188 56.9335 93.9253 57.0413C93.7557 57.0877 93.7573 57.2143 93.7652 57.3512C93.777 57.5455 93.9253 57.4889 94.0286 57.4889C94.9354 57.4928 95.8423 57.4928 96.7492 57.4889C96.8525 57.4889 96.9944 57.5455 97.0181 57.3543C97.0386 57.1844 96.9897 57.083 96.8114 57.0429C96.4211 56.9555 96.2981 56.6747 96.2965 56.3113C96.2941 55.682 96.3076 55.0527 96.2839 54.4242C96.2729 54.1301 96.3509 54.0365 96.6553 54.0569C97.2318 54.0962 97.8098 54.0852 98.3807 53.9617C99.6606 53.6848 100.371 52.7401 100.334 51.3518C100.302 50.1868 99.6377 49.5229 98.3058 49.3074ZM98.279 52.6748C98.044 53.1303 97.6355 53.3002 97.1497 53.3364C96.5772 53.3794 96.291 53.1153 96.291 52.5443C96.291 52.243 96.291 51.9425 96.291 51.6412C96.291 51.1701 96.302 50.6989 96.2855 50.2285C96.2776 50.0004 96.3604 49.9477 96.5757 49.9382C98.2104 49.8659 99.0415 51.1945 98.279 52.6741V52.6748Z" fill="#B7050B"></path><path d="M166.183 57.0793C165.67 56.9244 165.569 56.4784 165.442 56.0505C164.843 54.0312 164.246 52.012 163.647 49.9928C163.492 49.4716 163.137 49.2109 162.581 49.2109C161.782 49.2109 161.785 49.2125 161.501 49.9684C160.751 51.9656 160 53.962 159.246 55.9568C159.069 56.4241 158.899 56.9016 158.359 57.0903C158.217 57.1399 158.272 57.265 158.273 57.3602C158.274 57.5246 158.408 57.4884 158.504 57.4884C159.201 57.4915 159.897 57.4931 160.593 57.4884C160.697 57.4884 160.839 57.5426 160.865 57.3546C160.889 57.18 160.826 57.0974 160.651 57.0542C160.332 56.9747 160.233 56.7379 160.232 56.4288C160.232 56.0528 160.382 55.7154 160.471 55.3614C160.553 55.0357 160.704 54.8776 161.067 54.9209C161.365 54.9571 161.67 54.928 161.972 54.928C162.894 54.928 163.416 55.3847 163.537 56.2982C163.585 56.6624 163.513 56.9606 163.107 57.0597C162.939 57.1014 162.919 57.195 162.924 57.3413C162.932 57.5387 163.072 57.4892 163.178 57.4899C163.651 57.4939 164.124 57.4915 164.597 57.4915V57.4899C165.083 57.4899 165.569 57.4899 166.055 57.4899C166.162 57.4899 166.277 57.497 166.282 57.3444C166.286 57.2437 166.319 57.1194 166.182 57.0785L166.183 57.0793ZM162.821 54.2177C162.183 54.2153 161.545 54.2169 160.862 54.2169C161.257 53.1062 161.634 52.0451 162.012 50.9832C162.042 50.9863 162.072 50.9902 162.102 50.9934C162.387 51.9939 162.668 52.9953 162.958 53.9943C163 54.1382 162.999 54.2185 162.822 54.2177H162.821Z" fill="#B6050C"></path><path d="M139.145 61.2624C139.042 60.2548 138.141 59.8119 137.243 60.3043C137.034 60.4192 136.856 60.5694 136.708 60.7582C136.319 61.2545 136.182 61.8296 136.168 62.4439C136.17 62.963 136.249 63.4641 136.79 63.6938C137.337 63.9258 137.87 63.837 138.338 63.4594C138.459 63.3619 138.573 63.2462 138.662 63.1196C139.054 62.5619 139.213 61.9302 139.145 61.2624ZM138.173 62.9229C137.902 63.3092 137.465 63.4586 137.109 63.306C136.708 63.1337 136.718 62.7585 136.692 62.4415C136.725 61.9987 136.786 61.5991 136.985 61.2349C137.139 60.9525 137.338 60.7165 137.663 60.6182C138.134 60.4758 138.478 60.6567 138.575 61.1381C138.706 61.7863 138.548 62.3873 138.173 62.9221V62.9229Z" fill="#030303"></path><path d="M177.771 61.5055C178.132 61.087 178.049 60.5309 177.606 60.3004C177.134 60.0542 176.445 60.1974 176.103 60.6127C175.797 60.9848 175.847 61.3687 176.267 61.8666C176.022 62.0192 175.774 62.1655 175.61 62.4148C175.337 62.827 175.386 63.3737 175.724 63.6168C176.202 63.9613 177.169 63.8354 177.57 63.3776C177.976 62.9135 177.903 62.4062 177.356 61.8595C177.496 61.7423 177.654 61.6408 177.771 61.5047V61.5055ZM177.02 60.5773C177.287 60.582 177.472 60.6945 177.495 60.9368C177.502 61.2672 177.136 61.6857 176.876 61.6455C176.619 61.6054 176.417 61.452 176.408 61.1523C176.397 60.8322 176.672 60.5718 177.02 60.5773ZM176.532 63.3902C176.17 63.3902 175.953 63.1999 175.963 62.8907C175.972 62.5635 176.408 62.09 176.711 62.0758C176.955 62.064 177.289 62.4345 177.288 62.7153C177.286 63.111 176.973 63.3902 176.533 63.3894L176.532 63.3902Z" fill="#030303"></path><path d="M174.865 61.4186C175.105 61.0567 175.05 60.5918 174.735 60.3598C174.309 60.0459 173.529 60.1561 173.152 60.5832C172.815 60.9639 172.866 61.3957 173.301 61.8583C172.856 62.1344 172.712 62.2634 172.581 62.5009C172.362 62.9021 172.429 63.3693 172.741 63.6069C173.218 63.9711 174.214 63.835 174.617 63.3512C174.998 62.8926 174.91 62.3664 174.364 61.852C174.547 61.7261 174.738 61.6097 174.865 61.4178V61.4186ZM173.554 63.3906C173.182 63.3882 172.992 63.2152 172.999 62.8856C173.007 62.5489 173.436 62.0817 173.744 62.0738C173.983 62.0675 174.333 62.4577 174.327 62.7235C174.319 63.1105 173.99 63.3937 173.554 63.3914V63.3906ZM173.908 61.6467C173.644 61.6144 173.451 61.4453 173.429 61.1582C173.405 60.8491 173.697 60.5745 174.04 60.5785C174.304 60.5808 174.497 60.6831 174.513 60.8876C174.523 61.2699 174.177 61.6797 173.908 61.6467Z" fill="#030303"></path><path d="M114.51 61.1719C113.063 60.8801 112.221 62.06 112.39 63.2603C112.444 63.6434 112.688 63.8094 113.082 63.8046C113.414 63.8007 113.625 63.5781 113.869 63.387C113.823 64.268 113.385 64.6345 112.535 64.5165C112.359 64.4921 112.193 64.4473 112.153 64.7006C112.112 64.968 112.342 64.9224 112.464 64.9468C113.41 65.1332 114.152 64.6455 114.331 63.7205C114.476 62.9756 114.591 62.2251 114.732 61.4794C114.771 61.2765 114.713 61.2136 114.512 61.1727L114.51 61.1719ZM114.177 61.8271C114.073 62.2456 114.016 62.6798 113.753 63.0393C113.595 63.254 113.399 63.4829 113.104 63.3539C112.83 63.2351 112.854 62.9465 112.888 62.6971C112.981 62.0198 113.412 61.5636 113.966 61.5668C114.139 61.5447 114.234 61.5974 114.177 61.8271Z" fill="#030303"></path><path d="M171.975 60.8402C171.898 60.4445 171.566 60.196 171.157 60.1645C170.269 60.0968 169.556 60.83 169.649 61.7157C169.705 62.2537 170.065 62.5558 170.607 62.5314C170.84 62.5212 171.035 62.4236 171.275 62.2742C171.027 62.916 170.692 63.1945 169.915 63.3754C169.709 63.4234 169.661 63.5013 169.683 63.6877C169.71 63.9197 169.863 63.8198 169.976 63.8049C171.575 63.598 172.199 61.9949 171.976 60.8394L171.975 60.8402ZM170.7 62.1137C170.358 62.1168 170.172 61.9108 170.176 61.5324C170.183 60.9755 170.54 60.5562 170.992 60.5743C171.316 60.5877 171.514 60.8166 171.513 61.18C171.513 61.6811 171.14 62.109 170.7 62.1137Z" fill="#030303"></path><path d="M126.011 61.8333C125.914 61.2284 125.393 60.9562 124.842 61.2292C124.716 61.2913 124.607 61.388 124.446 61.5005C124.45 61.2999 124.43 61.1497 124.199 61.1788C124.088 61.193 123.972 61.1489 123.956 61.3401C123.859 62.4342 123.589 63.5009 123.428 64.5856C123.412 64.6973 123.244 64.912 123.547 64.9388C123.751 64.9569 123.904 64.9333 123.913 64.669C123.919 64.4881 123.984 64.3095 124.001 64.1286C124.023 63.8776 124.132 63.7974 124.396 63.7935C125.46 63.7785 126.18 62.8905 126.01 61.8341L126.011 61.8333ZM124.448 63.3915C124.249 63.3986 124.117 63.3852 124.184 63.1146C124.278 62.7229 124.274 62.3068 124.48 61.9434C124.635 61.6689 124.862 61.4879 125.189 61.5926C125.482 61.6862 125.482 61.9591 125.482 62.1558C125.458 62.87 125.017 63.3711 124.448 63.3915Z" fill="#030303"></path><path d="M118.057 60.1686C117.785 60.1159 117.511 60.1339 117.235 60.1387C116.958 60.1434 116.853 60.2425 116.811 60.5123C116.66 61.4814 116.48 62.4458 116.323 63.4141C116.304 63.5313 116.118 63.7334 116.426 63.7688C116.642 63.7932 116.81 63.7696 116.82 63.4817C116.828 63.2749 116.924 63.0711 116.925 62.865C116.929 62.5126 117.095 62.4529 117.415 62.4552C118.262 62.4623 118.83 61.8999 118.832 61.1038C118.834 60.5988 118.561 60.2653 118.057 60.1686ZM117.339 62.0194C117.133 62.058 117.074 61.9581 117.116 61.7528C117.17 61.4963 117.216 61.2391 117.26 60.9811C117.294 60.7797 117.26 60.5414 117.593 60.5721C117.907 60.6012 118.205 60.6366 118.278 61.022C118.383 61.5821 117.977 62.0202 117.339 62.0194Z" fill="#030303"></path><path d="M121.946 61.1733C121.107 61.3786 120.547 62.6655 120.976 63.4072C121.118 63.6503 121.331 63.7769 121.616 63.7989C122.525 63.8697 123.181 63.194 123.199 62.1636C123.211 61.3738 122.719 60.9853 121.946 61.174L121.946 61.1733ZM122.699 62.1652C122.687 62.494 122.612 62.8078 122.42 63.0839C122.229 63.3608 121.962 63.4851 121.641 63.3781C121.35 63.2806 121.356 63.0076 121.364 62.6592C121.382 62.3831 121.471 62.0354 121.741 61.7593C121.934 61.5626 122.177 61.5068 122.424 61.6083C122.659 61.705 122.708 61.9331 122.699 62.1652H122.699Z" fill="#030303"></path><path d="M127.178 62.699C127.505 62.6707 127.823 62.5912 128.114 62.4363C128.517 62.2223 128.688 61.8448 128.548 61.501C128.429 61.2076 128.058 61.0668 127.636 61.1549C126.979 61.2926 126.48 61.9156 126.427 62.6668C126.374 63.3975 126.748 63.7971 127.524 63.8003C127.724 63.8136 127.954 63.7751 128.183 63.7098C128.293 63.6783 128.368 63.6414 128.355 63.4998C128.332 63.2575 128.22 63.2575 128.017 63.3141C127.46 63.4699 127.12 63.3708 126.989 63.0459C126.913 62.8571 126.922 62.7202 127.177 62.6982L127.178 62.699ZM127.501 61.608C127.693 61.5026 127.928 61.4357 128.054 61.6686C128.179 61.8975 128.017 62.0587 127.805 62.1586C127.556 62.2766 127.29 62.3254 126.978 62.3694C127.073 62.0186 127.219 61.7614 127.5 61.608H127.501Z" fill="#040404"></path><path d="M146.886 62.7005C147.214 62.6714 147.531 62.5912 147.826 62.4417C148.226 62.2388 148.403 61.8951 148.292 61.5552C148.183 61.2257 147.821 61.0644 147.378 61.1494C146.746 61.2705 146.275 61.8243 146.167 62.5747C146.055 63.3534 146.449 63.8041 147.29 63.8002C147.465 63.8144 147.682 63.7656 147.9 63.7153C148.06 63.6783 148.109 63.6004 148.069 63.4336C148.027 63.2551 147.945 63.248 147.793 63.3015C147.659 63.3487 147.514 63.3739 147.372 63.3849C147.076 63.4085 146.825 63.3298 146.705 63.0223C146.636 62.8429 146.658 62.721 146.885 62.7005H146.886ZM147.253 61.593C147.446 61.4986 147.675 61.4373 147.792 61.6937C147.895 61.9202 147.73 62.0563 147.546 62.1523C147.301 62.2805 147.032 62.319 146.713 62.3717C146.798 62.0068 146.952 61.7401 147.253 61.593Z" fill="#030303"></path><path d="M103.019 63.3021C102.899 63.3493 102.766 63.3769 102.638 63.3855C102.352 63.4036 102.086 63.369 101.945 63.0607C101.847 62.8443 101.87 62.7169 102.141 62.6957C102.456 62.6713 102.76 62.5879 103.042 62.4447C103.439 62.2434 103.624 61.8949 103.519 61.5598C103.417 61.2349 103.044 61.0666 102.604 61.1484C101.948 61.2703 101.448 61.8839 101.382 62.6477C101.317 63.4044 101.694 63.8095 102.518 63.8009C102.682 63.8127 102.899 63.7702 103.117 63.7175C103.277 63.6789 103.331 63.6018 103.294 63.4374C103.255 63.2644 103.175 63.2408 103.018 63.3021H103.019ZM102.6 61.5464C102.758 61.4953 102.921 61.504 103.008 61.6723C103.104 61.8579 103.011 62.0042 102.856 62.1018C102.586 62.2709 102.28 62.3236 101.937 62.3645C102.034 61.9626 102.215 61.6707 102.6 61.5464Z" fill="#030303"></path><path d="M163.67 62.6974C163.985 62.6746 164.29 62.5897 164.573 62.4481C164.986 62.242 165.164 61.877 165.04 61.5222C164.932 61.2178 164.535 61.0637 164.1 61.1588C163.452 61.2996 162.955 61.9258 162.917 62.6447C162.876 63.4526 163.216 63.8081 164.052 63.8003C164.234 63.8097 164.439 63.7704 164.644 63.7184C164.757 63.6893 164.831 63.6532 164.829 63.5155C164.825 63.2748 164.734 63.2465 164.51 63.3094C163.929 63.4715 163.621 63.3818 163.475 63.0593C163.38 62.8492 163.399 62.7179 163.671 62.6974H163.67ZM164.106 61.5545C164.282 61.4908 164.458 61.5049 164.547 61.6874C164.637 61.8723 164.534 62.0162 164.373 62.1114C164.1 62.2735 163.798 62.3317 163.463 62.3592C163.565 61.9769 163.739 61.6882 164.105 61.5553L164.106 61.5545Z" fill="#040404"></path><path d="M49.6391 46.6591C49.6391 46.3468 49.6391 46.1305 49.6391 45.9142C49.6391 36.4765 49.6407 27.0388 49.6328 17.602C49.6328 17.3282 49.6998 17.1992 49.9758 17.1599C50.2077 17.1269 50.4372 17.0639 50.6603 16.9923C51.2596 16.8012 51.7769 16.9687 52.2312 17.3558C52.4488 17.5414 52.6712 17.7467 52.8171 17.9874C53.3896 18.9321 54.354 19.1154 55.3121 19.2483C55.8925 19.3293 56.4918 19.2711 57.0635 19.4568C57.2559 19.5189 57.4531 19.4945 57.6487 19.4631C58.3402 19.3498 59.0326 19.3482 59.7297 19.419C60.1161 19.4583 60.4347 19.5921 60.6807 19.8981C60.9267 20.2048 61.183 20.5022 61.4338 20.8042C61.709 21.1346 61.9306 21.1857 62.2823 20.9332C62.8256 20.5439 63.3343 20.5785 63.8807 20.9364C64.8523 21.5727 65.9499 21.6089 66.9893 21.2738C67.7913 21.015 68.4836 21.0575 69.2123 21.3792C69.3684 21.4477 69.5277 21.4933 69.7059 21.4186C70.2035 21.2109 70.6664 21.3336 70.9968 21.7151C71.5993 22.4113 72.2238 22.5505 73.0258 22.0439C73.4942 21.7481 74.0746 21.7206 74.6171 21.6388C75.0461 21.5743 75.4672 21.4799 75.8844 21.3682C76.7203 21.144 77.5546 21.0292 78.4062 21.2903C78.6381 21.3611 78.8778 21.3312 79.0947 21.2093C80.0764 20.6571 80.9707 20.8774 81.7924 21.5413C82.6748 22.2547 83.5895 22.9037 84.7038 23.2065C85.0089 23.2891 85.2826 23.4118 85.5428 23.5982C85.8914 23.8476 86.3014 23.9365 86.7351 23.9302C87.3021 23.9223 87.862 23.9687 88.3809 24.2354C88.8903 24.4981 89.0457 24.952 89.052 25.4751C89.063 26.3529 89.0567 27.2316 89.0575 28.1094C89.0575 30.9278 89.0693 33.7454 89.0496 36.5638C89.0449 37.2364 89.2318 37.7791 89.7175 38.2534C90.2892 38.8119 90.5999 39.512 90.6488 40.3143C90.678 40.7942 90.805 41.2292 91.0636 41.6437C91.4122 42.2014 91.5888 42.8386 91.8025 43.456C91.8585 43.6173 91.9003 43.7801 92.0406 43.8965C92.513 44.2875 92.6605 44.82 92.6723 45.4013C92.6999 46.7535 92.5185 48.0459 91.8159 49.2541C91.2647 50.2027 91.1756 51.2914 91.383 52.3478C91.6448 53.6811 91.2931 54.7485 90.2679 55.6114C89.9446 55.8836 90.0077 56.1471 90.1859 56.4727C90.5652 57.165 90.4406 57.6236 89.8129 58.0027C89.4494 58.2222 89.0133 58.1813 88.6916 57.8949C84.9277 54.5511 81.1662 51.2049 77.3945 47.8705C77.1232 47.6305 77.0136 47.3946 77.0215 47.0335C77.0459 45.9071 77.0247 44.7791 77.0357 43.6519C77.0381 43.4033 76.9781 43.3074 76.7084 43.3121C75.815 43.3278 74.9215 43.3262 74.0281 43.3137C73.7789 43.3105 73.6669 43.3687 73.6898 43.6393C73.7127 43.9115 73.6945 44.1876 73.6945 44.5038C73.3917 44.3543 73.1938 44.1309 72.9777 43.939C69.7414 41.0679 66.5106 38.1897 63.272 35.321C62.7736 34.8797 62.9187 34.8773 62.4384 35.3021C59.0523 38.3006 55.6725 41.307 52.2911 44.3111C51.5656 44.9553 50.8425 45.6019 50.1178 46.2461C49.9845 46.3641 49.8473 46.4782 49.6391 46.6567V46.6591Z" fill="#B6040A"></path><path d="M22.8185 63.2025C22.7074 63.2536 22.6537 63.2103 22.6009 63.1742C21.4188 62.36 20.1106 61.7811 18.8252 61.1604C18.0989 60.8096 17.4365 60.3794 16.8995 59.7619C16.5549 59.3654 16.0975 59.0901 15.6741 58.7825C15.2333 58.4632 14.8753 58.0738 14.5866 57.6105C14.1608 56.927 13.7515 56.2371 13.4826 55.4733C13.4211 55.2987 13.3517 55.1185 13.3778 54.9384C13.5244 53.9237 13.2169 53.0222 12.6917 52.1806C12.4149 51.7362 12.1712 51.2878 12.0072 50.7836C11.7194 49.8963 11.0546 49.3244 10.2314 48.9453C9.26851 48.5024 8.49729 47.8385 7.7994 47.0559C6.55898 45.6636 5.23733 44.3555 3.64757 43.3518C3.0656 42.9844 2.62873 42.4912 2.33223 41.8761C2.03651 41.2633 1.59018 40.8047 0.97904 40.5074C0.333988 40.1935 0.0327531 39.6618 0.0146159 38.9672C0.0043645 38.5771 -0.0358527 38.1838 0.0855874 37.7975C0.215702 37.3838 0.504319 37.1793 0.915954 37.1281C1.09811 37.1053 1.28264 37.1038 1.46638 37.1038C8.45549 37.103 15.4446 37.1053 22.4345 37.0967C22.7436 37.0967 22.8249 37.1722 22.8241 37.4845C22.8154 45.8972 22.8178 54.3099 22.8178 62.7234C22.8178 62.8894 22.8178 63.0554 22.8178 63.2017L22.8185 63.2025Z" fill="#B6040A"></path><path d="M84.536 56.9278C80.8612 53.6665 77.1849 50.4061 73.5117 47.1432C70.0247 44.0456 66.5384 40.9464 63.0569 37.8424C62.9031 37.7048 62.8219 37.6749 62.65 37.8283C60.2835 39.9387 57.9067 42.0382 55.5355 44.1447C51.6265 47.6168 47.7199 51.0928 43.8118 54.5656C42.0201 56.1577 40.2308 57.7521 38.4313 59.3348C38.22 59.5204 38.2381 59.6054 38.4463 59.7658C38.8611 60.086 39.2656 60.4219 39.652 60.7751C40.4091 61.4673 41.1598 62.1729 41.3845 63.2371C41.4752 63.6643 41.6282 64.0654 41.8443 64.4414C42.5619 65.6905 43.1691 66.99 43.6454 68.3493C43.9466 69.2082 44.4087 69.9358 45.1839 70.4644C45.7343 70.8396 46.1341 71.3816 46.3644 72.0022C46.8296 73.2561 47.6363 74.204 48.7522 74.9253C49.2229 75.2297 49.4035 75.6796 49.2497 76.2499C49.1472 76.629 49.2237 77.0019 49.3846 77.3574C49.547 77.7161 49.6661 78.0835 49.7174 78.4784C49.7939 79.073 49.8388 79.6944 50.2489 80.1758C50.9728 81.0254 51.3229 82.0417 51.6651 83.0761C52.0066 84.1081 52.3701 85.1566 53.6452 85.4193C53.6705 85.4249 53.6941 85.439 53.717 85.4508C55.2248 86.2114 56.7254 86.987 58.1914 87.8264C58.8814 88.222 59.6218 88.4281 60.4175 88.307C61.6248 88.1237 62.5908 88.5091 63.4086 89.4051C63.9897 90.0414 64.6103 90.2113 65.4415 89.6914C65.8839 89.4145 66.3389 89.1573 66.7892 88.8922C67.0533 88.7372 67.2465 88.5217 67.2536 88.2079C67.282 86.9784 67.3325 85.7544 67.0273 84.5368C66.6401 82.9942 66.0771 81.4903 65.9785 79.8801C65.8965 78.5342 65.9328 77.2072 66.5179 75.9589C66.9508 75.037 67.3932 74.1166 67.9523 73.2616C68.1771 72.9186 68.252 72.5544 68.1321 72.18C68.0588 71.9495 68.155 71.8953 68.3135 71.7954C69.0681 71.3242 69.8338 70.8695 70.5459 70.3331C72.25 69.0501 73.895 67.6775 75.8065 66.6974C78.4167 65.3594 80.7366 63.6147 82.85 61.6081C83.9974 60.5186 85.0817 59.3843 86.7661 58.9061C85.9602 58.1919 85.2465 57.5594 84.5336 56.927L84.536 56.9278ZM62.0585 57.3761C62.0601 57.5838 61.9883 57.6452 61.7841 57.6428C60.8646 57.6342 59.9452 57.6342 59.0265 57.6444C58.8112 57.6467 58.7244 57.5932 58.7268 57.3612C58.7386 56.4448 58.7379 55.5276 58.7276 54.6105C58.7252 54.3996 58.7962 54.3422 58.9981 54.3477C59.457 54.3603 59.9176 54.3517 60.3765 54.3517C60.8362 54.3517 61.296 54.3603 61.7549 54.3477C61.9647 54.3422 62.0617 54.3863 62.0585 54.6254C62.0459 55.5418 62.0491 56.459 62.0569 57.3761H62.0585ZM61.7802 52.4481C61.3212 52.4386 60.8615 52.4449 60.4025 52.4449V52.4473C59.9436 52.4473 59.4838 52.4379 59.0249 52.4512C58.8088 52.4575 58.7237 52.4001 58.726 52.168C58.7371 51.2517 58.7347 50.3361 58.726 49.4197C58.7244 49.2246 58.7694 49.1451 58.9855 49.1475C59.9302 49.1585 60.8749 49.1577 61.8196 49.1491C62.0167 49.1475 62.0601 49.2214 62.0593 49.4016C62.053 50.3305 62.0514 51.2603 62.0617 52.1893C62.064 52.408 61.9718 52.4512 61.7802 52.4473V52.4481ZM63.6428 52.1122C63.6593 51.6544 63.6475 51.195 63.6475 50.7372C63.6475 50.3046 63.6577 49.872 63.6436 49.4401C63.6365 49.2293 63.6814 49.1443 63.9172 49.1475C64.8493 49.1609 65.7822 49.1601 66.7143 49.1475C66.9335 49.1443 66.9698 49.2246 66.9682 49.4173C66.9595 50.3345 66.9571 51.2517 66.9698 52.168C66.9729 52.3977 66.898 52.4528 66.6796 52.4504C65.7735 52.4394 64.8666 52.4355 63.9614 52.4528C63.6861 52.4583 63.6349 52.3545 63.6443 52.1114L63.6428 52.1122ZM66.6756 57.6436C65.7561 57.6334 64.8359 57.6349 63.9164 57.6444C63.7122 57.6467 63.6396 57.5885 63.6459 57.3793C63.6593 56.9081 63.6499 56.4362 63.6499 55.9642C63.6499 55.5316 63.6593 55.0989 63.6451 54.6671C63.638 54.446 63.6719 54.3414 63.9377 54.3462C64.8572 54.3635 65.7774 54.3572 66.6969 54.3477C66.8972 54.3454 66.9713 54.3957 66.969 54.6089C66.9587 55.5261 66.9579 56.444 66.969 57.3612C66.9721 57.5893 66.8941 57.6467 66.6756 57.6444V57.6436Z" fill="#0A1474"></path><path d="M47.5937 1.62198C47.5937 0.431845 47.1813 0.00707943 45.9953 0.00629283C39.4391 0.00157321 32.8829 0 26.3259 0C25.3245 0 24.886 0.440498 24.8837 1.44027C24.8773 3.90391 24.8663 6.36755 24.8655 8.83119C24.8631 16.6681 24.8647 24.5058 24.8647 32.3428H24.8474C24.8474 42.5521 24.8474 52.7614 24.8474 62.9715C24.8474 63.1548 24.8568 63.3389 24.845 63.5221C24.8332 63.7094 24.9042 63.7565 25.0745 63.6983C25.3655 63.5992 25.6352 63.4506 25.8315 63.2209C26.2581 62.7214 26.7344 62.2722 27.1879 61.7995C27.3724 61.6068 27.5301 61.3952 27.5593 61.1246C27.6594 60.1901 28.0151 59.3366 28.3337 58.4643C28.556 57.8562 28.9345 57.5487 29.5307 57.3615C30.4541 57.072 31.3507 56.6653 32.3364 57.0964C32.3704 57.1113 32.4145 57.1027 32.4539 57.1027C33.5603 57.105 34.6478 57.3001 35.7423 57.4189C36.0798 57.4551 36.4023 57.5668 36.5861 57.8594C36.7548 58.1276 36.8629 58.023 37.0277 57.8759C38.5536 56.5159 40.0818 55.1574 41.6156 53.806C41.7701 53.6699 41.8175 53.5291 41.8143 53.3317C41.804 52.5978 41.819 51.8639 41.8048 51.13C41.8009 50.9027 41.8719 50.8476 42.0927 50.8515C42.9199 50.8641 43.7479 50.8508 44.5759 50.8602C44.8132 50.8633 44.997 50.8059 45.1776 50.6407C45.8731 50.0044 46.5757 49.3751 47.2941 48.7647C47.5291 48.5649 47.5985 48.3533 47.5985 48.056C47.5922 32.578 47.593 17.1 47.593 1.62198H47.5937ZM27.3858 4.45453C27.8581 4.46555 28.3313 4.45768 28.8036 4.45768C29.25 4.45768 29.6963 4.46633 30.1426 4.45375C30.3421 4.44824 30.421 4.50173 30.4186 4.7149C30.4092 5.63129 30.4076 6.54847 30.4186 7.46486C30.4218 7.69691 30.3343 7.74804 30.1206 7.74568C29.2019 7.73624 28.2824 7.73703 27.3637 7.74411C27.1697 7.74568 27.0806 7.70085 27.083 7.48374C27.0924 6.56735 27.094 5.65017 27.083 4.73378C27.0798 4.49622 27.1784 4.44981 27.3866 4.45453H27.3858ZM30.3768 12.5794C30.3792 12.8311 30.3098 12.92 30.0472 12.9152C29.1814 12.9003 28.3155 12.9034 27.4497 12.9152C27.2084 12.9184 27.1319 12.8382 27.135 12.5998C27.1461 11.7361 27.1484 10.8724 27.1334 10.0087C27.1287 9.74601 27.2178 9.67679 27.4702 9.67915C28.4409 9.68781 29.4116 9.67758 30.3824 9.67443C30.3792 10.6427 30.3682 11.6111 30.3776 12.5794H30.3768ZM27.0822 20.3101C27.0806 20.1087 27.1366 20.0364 27.3464 20.0379C28.2911 20.0466 29.2366 20.0466 30.1813 20.0364C30.3847 20.034 30.4179 20.1197 30.4171 20.2936C30.4115 21.2233 30.4084 22.1523 30.4171 23.0821C30.4194 23.3 30.324 23.3448 30.1324 23.3409C29.6734 23.3322 29.2137 23.3377 28.7548 23.3385C28.2958 23.3385 27.8361 23.3299 27.3771 23.3432C27.161 23.3495 27.0775 23.2905 27.0806 23.0593C27.0924 22.1429 27.0909 21.2265 27.0822 20.3101ZM30.4186 38.5396C30.421 38.7481 30.3508 38.8086 30.1482 38.8031C29.6766 38.7906 29.2042 38.7992 28.7327 38.7992C28.2737 38.7992 27.8148 38.7913 27.3566 38.8024C27.1563 38.8079 27.0814 38.7504 27.0838 38.5396C27.0932 37.6114 27.0924 36.6825 27.083 35.7543C27.0806 35.5466 27.1508 35.4845 27.3542 35.486C28.2848 35.4939 29.2161 35.4939 30.1466 35.486C30.3492 35.4845 30.4218 35.549 30.4202 35.7551C30.4115 36.6832 30.4108 37.6122 30.4202 38.5404L30.4186 38.5396ZM30.4139 42.3397C30.4139 42.7975 30.4076 43.2561 30.4163 43.7139C30.4194 43.898 30.3926 44.001 30.1663 43.9979C29.2216 43.9869 28.2769 43.9892 27.3322 43.9963C27.1453 43.9979 27.0814 43.9373 27.083 43.7485C27.0901 42.8062 27.0901 41.8638 27.083 40.9222C27.0814 40.7327 27.1516 40.6745 27.3361 40.676C28.2808 40.6831 29.2255 40.6839 30.1702 40.676C30.3619 40.6745 30.421 40.7437 30.4171 40.927C30.4084 41.3981 30.4139 41.8693 30.4139 42.3405V42.3397ZM30.1608 33.5974C29.2153 33.5848 28.2698 33.5848 27.3243 33.5935C27.1279 33.595 27.0814 33.525 27.083 33.3433C27.0901 32.4136 27.0917 31.483 27.0822 30.5532C27.0798 30.3385 27.1642 30.2874 27.3613 30.2913C27.8211 30.3023 28.2808 30.2945 28.7406 30.2945C29.2003 30.2945 29.66 30.3031 30.119 30.2905C30.3327 30.2842 30.4218 30.3393 30.4186 30.5729C30.4076 31.4901 30.4115 32.4065 30.4186 33.3237C30.4202 33.5156 30.3792 33.5998 30.1608 33.5966V33.5974ZM30.134 28.3987C29.675 28.3917 29.2153 28.3964 28.7563 28.3964C28.2974 28.3964 27.8376 28.3862 27.3787 28.4003C27.1634 28.4066 27.079 28.3531 27.0822 28.1195C27.0948 27.2031 27.0924 26.2867 27.0838 25.3703C27.0822 25.1721 27.1319 25.0942 27.3464 25.0966C28.2777 25.1068 29.2098 25.1052 30.1419 25.0966C30.3414 25.095 30.4179 25.1516 30.4155 25.3609C30.4076 26.2899 30.4068 27.2196 30.4194 28.1494C30.4226 28.3783 30.3145 28.4003 30.1348 28.3972L30.134 28.3987ZM27.4236 45.6733C27.8692 45.6891 28.3163 45.6781 28.7619 45.6773C29.2216 45.6773 29.6805 45.6843 30.1395 45.6733C30.3335 45.6686 30.4202 45.7111 30.4179 45.9298C30.4068 46.8587 30.4092 47.7885 30.4163 48.7183C30.4179 48.9094 30.3784 48.9999 30.1576 48.9967C29.2255 48.9857 28.2942 48.9849 27.3621 48.9967C27.1248 48.9999 27.0798 48.9055 27.0822 48.6962C27.0909 47.7932 27.098 46.8894 27.079 45.9864C27.0735 45.7056 27.1839 45.6639 27.4236 45.6718V45.6733ZM30.4194 53.8776C30.4234 54.1317 30.3248 54.1804 30.0969 54.1781C29.1908 54.1679 28.2848 54.1639 27.3795 54.1797C27.1185 54.1844 27.0798 54.0798 27.0822 53.8572C27.0917 52.9533 27.0924 52.0503 27.0822 51.1465C27.0798 50.9286 27.1374 50.8437 27.3677 50.8508C27.84 50.8657 28.3132 50.8555 28.7855 50.8555C29.2318 50.8555 29.679 50.8673 30.1245 50.8508C30.3414 50.8429 30.4234 50.8956 30.4202 51.1276C30.4076 52.044 30.406 52.9612 30.4202 53.8776H30.4194ZM30.0788 18.1619C29.1869 18.1501 28.2942 18.1509 27.4024 18.1611C27.1768 18.1635 27.0751 18.1194 27.0798 17.8622C27.0948 16.9592 27.098 16.0561 27.0798 15.1531C27.0743 14.8731 27.1847 14.8283 27.4244 14.8361C27.87 14.8503 28.3163 14.8401 28.7626 14.8401C29.209 14.8401 29.6553 14.8519 30.1008 14.8353C30.3311 14.8267 30.4242 14.8778 30.4202 15.1327C30.4052 16.0357 30.4037 16.9387 30.4218 17.8417C30.4273 18.1186 30.3216 18.165 30.0796 18.1619H30.0788ZM32.0139 4.72749C32.0123 4.53241 32.0541 4.45139 32.2726 4.45375C33.1913 4.46555 34.1099 4.46555 35.0278 4.45611C35.2486 4.45375 35.3204 4.51982 35.3173 4.74558C35.3054 5.6486 35.3078 6.55162 35.3173 7.45464C35.3196 7.67253 35.2573 7.75512 35.0278 7.74726C34.5689 7.73152 34.1092 7.74254 33.6502 7.74254V7.74096C33.1913 7.74096 32.7315 7.72995 32.2726 7.74568C32.0573 7.75355 32.01 7.67489 32.0123 7.47588C32.0218 6.55948 32.0218 5.64309 32.0139 4.72749ZM32.0116 9.93244C32.0092 9.71691 32.0612 9.63746 32.2931 9.64061C33.1991 9.65319 34.106 9.65477 35.0129 9.63982C35.2699 9.63589 35.3188 9.73579 35.3165 9.96154C35.3078 10.8528 35.3054 11.744 35.3173 12.6352C35.3204 12.8838 35.2613 12.9852 34.9892 12.9711C34.5571 12.9475 34.1226 12.9648 33.6889 12.964C33.2417 12.964 32.7946 12.9522 32.3491 12.9679C32.103 12.9766 32.0052 12.92 32.0108 12.6454C32.0289 11.7416 32.0226 10.837 32.0116 9.93244ZM32.0108 15.1209C32.0076 14.8975 32.0739 14.8322 32.297 14.8353C33.2007 14.8471 34.1052 14.8487 35.0089 14.8353C35.2518 14.8322 35.322 14.9053 35.3188 15.146C35.3062 16.0475 35.307 16.9497 35.3188 17.8512C35.322 18.0903 35.2526 18.1705 35.0073 18.1603C34.5626 18.1414 34.1163 18.1548 33.6707 18.1556C33.2252 18.1564 32.7796 18.1469 32.3341 18.1603C32.1109 18.1674 32.0052 18.1241 32.0092 17.8645C32.0242 16.9497 32.0218 16.0349 32.01 15.1201L32.0108 15.1209ZM32.0147 37.1348H32.0163C32.0163 36.6895 32.0273 36.2443 32.0116 35.7999C32.0037 35.5678 32.0628 35.4805 32.3152 35.4845C33.2204 35.4994 34.1257 35.497 35.031 35.4845C35.2644 35.4813 35.3188 35.5663 35.3165 35.7794C35.3078 36.6958 35.307 37.6114 35.3165 38.5278C35.3188 38.7379 35.2455 38.7945 35.046 38.7929C34.1147 38.785 33.1826 38.7835 32.2513 38.7929C32.0589 38.7945 32.0052 38.7323 32.01 38.5483C32.0202 38.0771 32.0131 37.6059 32.0131 37.1348H32.0147ZM32.0171 26.7461H32.0187C32.0187 26.2875 32.0265 25.8289 32.0147 25.3703C32.01 25.1721 32.062 25.095 32.2765 25.0974C33.196 25.1084 34.1155 25.1099 35.0349 25.0974C35.2739 25.0942 35.318 25.1902 35.3165 25.3971C35.3094 26.3009 35.3086 27.2055 35.318 28.1093C35.3204 28.3272 35.2581 28.4019 35.0302 28.3987C34.1241 28.3862 33.2173 28.383 32.3112 28.4003C32.0518 28.405 32.0052 28.3099 32.0131 28.0833C32.0281 27.6381 32.0179 27.1921 32.0179 26.7469L32.0171 26.7461ZM35.3165 33.374C35.318 33.551 35.2479 33.5942 35.0846 33.5927C34.1407 33.5872 33.1968 33.584 32.2529 33.5927C32.0581 33.5942 32.01 33.5282 32.0139 33.3465C32.0242 32.8627 32.0179 32.379 32.0179 31.8952H32.0194C32.0194 31.4508 32.0289 31.0055 32.0155 30.5619C32.0092 30.3558 32.0778 30.2905 32.282 30.2929C33.1999 30.3007 34.117 30.3007 35.0349 30.2929C35.2266 30.2913 35.3196 30.3314 35.318 30.5493C35.3094 31.4909 35.3102 32.4324 35.3173 33.374H35.3165ZM32.2734 20.0387C32.7323 20.045 33.1913 20.0411 33.6502 20.0411C34.1226 20.0411 34.5941 20.0466 35.0657 20.0387C35.2463 20.0356 35.3188 20.0891 35.3173 20.2826C35.3086 21.2108 35.3102 22.1397 35.3173 23.0679C35.3188 23.2654 35.2636 23.3456 35.0499 23.3432C34.1194 23.3322 33.1881 23.333 32.2576 23.3393C32.0644 23.3409 32.0116 23.2685 32.0131 23.0868C32.0187 22.1452 32.021 21.2037 32.01 20.2621C32.0076 20.0489 32.1101 20.0364 32.2742 20.0387H32.2734ZM35.042 54.1773C34.5831 54.1655 34.1241 54.1734 33.6652 54.1742C33.2062 54.1742 32.7473 54.1663 32.2883 54.1781C32.0904 54.1828 32.0108 54.1301 32.0123 53.9169C32.021 52.9754 32.0194 52.033 32.0116 51.0915C32.01 50.9011 32.0731 50.8507 32.2592 50.8523C33.1905 50.861 34.1218 50.861 35.0523 50.8508C35.2644 50.8484 35.3196 50.9278 35.318 51.1261C35.3102 52.055 35.3102 52.9832 35.318 53.9122C35.3196 54.1214 35.2439 54.182 35.042 54.1765V54.1773ZM34.9963 48.9967C34.1052 48.9849 33.2141 48.9841 32.3238 48.9967C32.0857 48.9999 32.0076 48.9322 32.0116 48.6892C32.0242 47.7877 32.0242 46.8855 32.0116 45.984C32.0084 45.752 32.0573 45.6607 32.3104 45.6725C32.7678 45.6938 33.2275 45.6788 33.6857 45.6781C34.1312 45.6781 34.5768 45.6875 35.0223 45.6733C35.2368 45.6663 35.3228 45.7213 35.3196 45.9534C35.3078 46.8682 35.307 47.783 35.3204 48.6978C35.3243 48.9511 35.2266 48.9991 34.9971 48.9959L34.9963 48.9967ZM35.3141 42.3468C35.3141 42.7912 35.3031 43.2356 35.318 43.6801C35.3259 43.909 35.2723 44.0026 35.0176 43.9979C34.1139 43.9829 33.2094 43.9869 32.3057 43.9963C32.0967 43.9987 32.0068 43.957 32.0108 43.7218C32.0242 42.8069 32.0242 41.8921 32.0108 40.9773C32.0068 40.7303 32.092 40.6705 32.3262 40.6737C33.2173 40.6863 34.1084 40.691 34.9987 40.6721C35.2778 40.6666 35.3267 40.7736 35.3188 41.0143C35.3038 41.4579 35.3149 41.9031 35.3141 42.3476V42.3468ZM36.8991 4.72591C36.8975 4.5269 36.9472 4.45139 37.1617 4.45375C38.0938 4.46476 39.0267 4.46319 39.9596 4.45375C40.1654 4.45139 40.234 4.51746 40.2285 4.72277C40.2159 5.18057 40.2245 5.63995 40.2245 6.09854C40.2245 6.55712 40.2166 7.01571 40.2285 7.4743C40.234 7.67725 40.1717 7.74804 39.9627 7.74647C39.0306 7.73703 38.0978 7.73703 37.1649 7.74647C36.9543 7.74883 36.8968 7.67882 36.8983 7.47666C36.907 6.55948 36.9078 5.64231 36.8983 4.72591H36.8991ZM36.896 15.0815C36.8944 14.8928 36.9591 14.8353 37.1444 14.8369C38.0891 14.8448 39.0338 14.8456 39.9785 14.8393C40.1614 14.8385 40.2308 14.8896 40.2293 15.0831C40.2206 16.0255 40.2214 16.9678 40.2293 17.9102C40.2308 18.0982 40.1662 18.1619 39.9793 18.1587C39.5069 18.1493 39.0346 18.1556 38.5622 18.1556C38.1033 18.1556 37.6435 18.1493 37.1846 18.1587C36.9977 18.1627 36.8936 18.1336 36.896 17.9078C36.9054 16.9655 36.9039 16.0231 36.896 15.0808V15.0815ZM36.8944 20.325C36.892 20.1048 36.9551 20.0285 37.1814 20.0371C37.6404 20.0537 38.1001 20.0419 38.5599 20.0427C39.0322 20.0427 39.5054 20.0489 39.9777 20.0395C40.1591 20.0356 40.2316 20.082 40.2301 20.2794C40.2206 21.2092 40.2214 22.1382 40.2301 23.0679C40.2316 23.2701 40.1725 23.344 39.9643 23.3417C39.0322 23.3338 38.1001 23.3338 37.1688 23.3417C36.9646 23.3432 36.8936 23.2803 36.896 23.0742C36.9046 22.1578 36.9062 21.2414 36.896 20.325H36.8944ZM36.8999 35.7252C36.8983 35.5277 36.9819 35.4868 37.1594 35.4876C38.0914 35.4939 39.0235 35.4986 39.9556 35.4852C40.2017 35.4821 40.2324 35.5883 40.2277 35.7912C40.2166 36.249 40.2245 36.7076 40.2245 37.1662C40.2245 37.6248 40.2182 38.0826 40.2285 38.5412C40.2324 38.7245 40.1804 38.7945 39.9864 38.7929C39.0409 38.785 38.0962 38.7858 37.1507 38.7929C36.9685 38.7945 36.8975 38.7465 36.8991 38.553C36.907 37.6106 36.907 36.6675 36.8991 35.7244L36.8999 35.7252ZM39.9525 33.5942C39.0212 33.5872 38.0891 33.584 37.1578 33.5958C36.9378 33.599 36.8968 33.514 36.9015 33.3213C36.9125 32.8635 36.9046 32.4049 36.9054 31.9471C36.9054 31.5019 36.9157 31.0567 36.9015 30.6122C36.8944 30.3888 36.9354 30.2858 37.1972 30.2905C38.1151 30.307 39.0338 30.3007 39.9525 30.2921C40.1504 30.2905 40.2301 30.3393 40.2277 30.5532C40.2174 31.4822 40.2166 32.412 40.2293 33.341C40.2324 33.5636 40.1417 33.595 39.9525 33.5935V33.5942ZM40.2245 26.7445C40.2245 27.2023 40.2174 27.6601 40.2277 28.1171C40.2316 28.3075 40.1946 28.3995 39.973 28.3964C39.0291 28.3862 38.0859 28.3869 37.142 28.3964C36.9433 28.3987 36.9015 28.3209 36.9023 28.1431C36.9086 27.2149 36.911 26.2867 36.9015 25.3585C36.8991 25.1485 36.9733 25.095 37.1743 25.0974C38.1049 25.1068 39.0354 25.1076 39.9659 25.0974C40.1788 25.095 40.2332 25.1721 40.2285 25.3711C40.2166 25.8281 40.2245 26.2859 40.2245 26.7437V26.7445ZM39.9572 54.1781C39.4849 54.1655 39.0117 54.1742 38.5394 54.1742C38.093 54.1742 37.6467 54.1663 37.2004 54.1773C36.9953 54.1828 36.8897 54.1466 36.8928 53.9044C36.9054 52.9746 36.9039 52.0448 36.8944 51.1151C36.892 50.9042 36.9677 50.8508 37.1672 50.8531C38.0993 50.8618 39.0314 50.8618 39.9635 50.8531C40.1709 50.8508 40.2308 50.9208 40.2285 51.1229C40.2198 52.0527 40.219 52.9824 40.2285 53.9122C40.2308 54.1207 40.1607 54.1844 39.9564 54.1789L39.9572 54.1781ZM40.2285 48.723C40.2301 48.9228 40.1756 48.9983 39.9635 48.9959C39.0314 48.9857 38.0993 48.9865 37.1672 48.9959C36.9638 48.9983 36.8928 48.9377 36.8944 48.7309C36.9031 47.8011 36.9031 46.8713 36.8944 45.9423C36.8928 45.7394 36.9504 45.6686 37.1601 45.6749C37.6325 45.6891 38.1049 45.6796 38.578 45.6796C39.0377 45.6796 39.4967 45.6875 39.9564 45.6757C40.1536 45.671 40.2324 45.7205 40.2301 45.9353C40.219 46.865 40.2206 47.7948 40.2293 48.7238L40.2285 48.723ZM40.2293 40.9954C40.2151 41.4398 40.2253 41.8858 40.2253 42.3303C40.2253 42.8014 40.2182 43.2726 40.2285 43.7438C40.2324 43.9271 40.1804 43.9963 39.9872 43.9947C39.0425 43.9869 38.097 43.9845 37.1523 43.9955C36.9322 43.9979 36.8944 43.9106 36.896 43.7194C36.9031 42.803 36.9046 41.8866 36.896 40.9702C36.8936 40.7594 36.9409 40.6697 37.1775 40.6729C38.0962 40.6863 39.0149 40.6878 39.9335 40.6729C40.1946 40.6682 40.2372 40.7712 40.2293 40.9954ZM39.943 12.9656C39.4841 12.9577 39.0243 12.9632 38.5654 12.9632C38.093 12.9632 37.6207 12.9569 37.1483 12.9672C36.9598 12.9711 36.896 12.9066 36.8968 12.7194C36.9031 11.777 36.9031 10.8347 36.8968 9.89154C36.8952 9.70747 36.9535 9.6414 37.1436 9.64297C38.0883 9.65084 39.0338 9.64926 39.9785 9.64297C40.1607 9.6414 40.2316 9.69252 40.2301 9.88603C40.2222 10.8284 40.2206 11.7715 40.2308 12.7139C40.2332 12.9404 40.1283 12.9687 39.9438 12.9656H39.943ZM42.1281 4.45375C42.5879 4.46712 43.0476 4.45768 43.5074 4.45847C43.9537 4.45847 44.4008 4.46319 44.8471 4.45611C45.0261 4.45296 45.135 4.46633 45.131 4.70231C45.1168 5.63208 45.1176 6.56342 45.131 7.49318C45.1342 7.71894 45.0396 7.74647 44.8527 7.74568C43.9332 7.73939 43.0137 7.73624 42.0942 7.74804C41.8695 7.75119 41.8048 7.68197 41.808 7.46014C41.819 6.55634 41.8222 5.65174 41.8048 4.74794C41.8001 4.48521 41.905 4.44745 42.1281 4.45375ZM45.1263 21.7118C45.1263 22.1563 45.1176 22.6015 45.1302 23.0459C45.1358 23.2544 45.0924 23.3472 44.8535 23.3432C43.9356 23.3299 43.0177 23.3322 42.0998 23.3417C41.8805 23.344 41.8048 23.2819 41.8072 23.0538C41.8182 22.1382 41.8159 21.2226 41.8072 20.3069C41.8048 20.1056 41.8616 20.0356 42.0722 20.0379C43.0035 20.0482 43.9348 20.0474 44.8653 20.0379C45.0687 20.0356 45.1381 20.0906 45.1318 20.2999C45.1168 20.7703 45.1271 21.2414 45.1271 21.7126L45.1263 21.7118ZM41.8072 30.5525C41.8048 30.3377 41.8837 30.2913 42.0824 30.2929C43.0145 30.3015 43.9466 30.3 44.8787 30.2929C45.0624 30.2913 45.131 30.3409 45.1295 30.5336C45.1216 31.4759 45.1208 32.4191 45.1295 33.3622C45.1318 33.5628 45.0537 33.599 44.8763 33.5958C44.404 33.5856 43.9308 33.5927 43.4585 33.5927C42.9987 33.5927 42.539 33.5848 42.08 33.5966C41.8868 33.6013 41.8033 33.5636 41.8064 33.3433C41.819 32.4136 41.8174 31.4838 41.8064 30.554L41.8072 30.5525ZM45.1287 28.1879C45.1302 28.372 45.049 28.3987 44.8921 28.3979C43.9474 28.3924 43.0027 28.3893 42.0588 28.3995C41.834 28.4019 41.804 28.3059 41.8088 28.1179C41.819 27.6467 41.8119 27.1756 41.8119 26.7052C41.8119 26.26 41.819 25.8155 41.808 25.3703C41.8025 25.1713 41.8577 25.0942 42.0706 25.0966C43.0153 25.1068 43.9592 25.1052 44.9039 25.0982C45.0766 25.0966 45.1302 25.1532 45.1287 25.3223C45.1224 26.2773 45.1216 27.233 45.1287 28.1879ZM41.808 15.0753C41.8064 14.8778 41.8813 14.8353 42.0611 14.8369C43.0058 14.8432 43.9505 14.8448 44.8952 14.8353C45.0987 14.833 45.1318 14.9179 45.1287 15.091C45.1208 15.5747 45.1255 16.0593 45.1255 16.5438C45.1255 17.0016 45.1184 17.4602 45.1295 17.918C45.1342 18.1084 45.0672 18.1627 44.8803 18.1611C43.949 18.1532 43.0169 18.1532 42.0856 18.1611C41.8924 18.1627 41.804 18.1226 41.8064 17.9039C41.8174 16.9615 41.8167 16.0192 41.8072 15.0768L41.808 15.0753ZM42.1218 9.63982C43.0271 9.65084 43.9324 9.65477 44.8377 9.63668C45.1019 9.63117 45.1366 9.73421 45.1302 9.95525C45.1168 10.4131 45.1263 10.8709 45.1263 11.3294C45.1263 11.7872 45.1168 12.2458 45.1302 12.7036C45.1366 12.9113 45.0672 12.9695 44.8613 12.9672C43.9434 12.9577 43.0248 12.9546 42.1061 12.9695C41.8498 12.9734 41.8048 12.8751 41.8072 12.6486C41.8174 11.7456 41.8206 10.8425 41.8048 9.93952C41.8001 9.68623 41.8908 9.63668 42.121 9.63904L42.1218 9.63982ZM41.8056 38.5538C41.8174 37.613 41.8143 36.6714 41.808 35.7299C41.8064 35.5395 41.8758 35.4845 42.0595 35.486C43.0035 35.4931 43.9466 35.4947 44.8905 35.4852C45.09 35.4829 45.1295 35.5615 45.1287 35.7385C45.1224 36.6801 45.1208 37.6209 45.1302 38.5624C45.1318 38.7552 45.0664 38.8063 44.8826 38.8024C44.3977 38.7913 43.9127 38.7984 43.4277 38.7984C42.9822 38.7984 42.5366 38.7929 42.0911 38.8016C41.9081 38.8055 41.8033 38.7819 41.8064 38.5546L41.8056 38.5538ZM41.808 40.9207C41.8064 40.7319 41.8703 40.6737 42.0572 40.6753C43.0019 40.6823 43.9466 40.6839 44.8913 40.6745C45.0908 40.6721 45.131 40.7492 45.1295 40.927C45.1231 41.8693 45.1224 42.8117 45.1295 43.7532C45.131 43.9404 45.0743 44.0018 44.8842 43.9971C44.3992 43.9853 43.9135 43.9931 43.4277 43.9931C42.9814 43.9931 42.5358 43.9869 42.0895 43.9955C41.9058 43.9987 41.8033 43.9751 41.8056 43.7469C41.8174 42.8046 41.8143 41.8622 41.8072 40.9207H41.808ZM44.8456 48.9952C44.3866 48.9865 43.9269 48.992 43.4679 48.992C43.009 48.992 42.5492 48.9857 42.0903 48.9952C41.9042 48.9991 41.8033 48.9716 41.8064 48.745C41.8174 47.8027 41.8159 46.8603 41.808 45.918C41.8064 45.7284 41.8679 45.6733 42.0548 45.6749C42.9995 45.6828 43.9442 45.6828 44.8889 45.6741C45.0837 45.6725 45.1302 45.741 45.1287 45.9227C45.1216 46.865 45.1184 47.8074 45.1302 48.7497C45.1334 48.9794 45.0277 48.9991 44.8456 48.9952Z" fill="#0A1474"></path></g><defs><clipPath id="clip0_333_2779"><rect width="183" height="90" fill="white"></rect></clipPath></defs></svg> 